%TF.GenerationSoftware,KiCad,Pcbnew,10.0.3*%
%TF.CreationDate,2026-10-02T23:49:07+05:30*%
%TF.ProjectId,Tennis_Logitudinal_monitoring,54656e6e-6973-45f4-9c6f-676974756469,rev?*%
%TF.SameCoordinates,Original*%
%TF.FileFunction,Legend,Top*%
%TF.FilePolarity,Positive*%
%FSLAX46Y46*%
G04 Gerber Fmt 4.6, Leading zero omitted, Abs format (unit mm)*
G04 Created by KiCad (PCBNEW 10.0.3) date 2026-10-02 23:49:07*
%MOMM*%
%LPD*%
G01*
G04 APERTURE LIST*
%ADD10C,0.150000*%
%ADD11C,0.120000*%
G04 APERTURE END LIST*
D10*
X50061905Y-36704819D02*
X50061905Y-35704819D01*
X50061905Y-35704819D02*
X50300000Y-35704819D01*
X50300000Y-35704819D02*
X50442857Y-35752438D01*
X50442857Y-35752438D02*
X50538095Y-35847676D01*
X50538095Y-35847676D02*
X50585714Y-35942914D01*
X50585714Y-35942914D02*
X50633333Y-36133390D01*
X50633333Y-36133390D02*
X50633333Y-36276247D01*
X50633333Y-36276247D02*
X50585714Y-36466723D01*
X50585714Y-36466723D02*
X50538095Y-36561961D01*
X50538095Y-36561961D02*
X50442857Y-36657200D01*
X50442857Y-36657200D02*
X50300000Y-36704819D01*
X50300000Y-36704819D02*
X50061905Y-36704819D01*
X51490476Y-36038152D02*
X51490476Y-36704819D01*
X51252381Y-35657200D02*
X51014286Y-36371485D01*
X51014286Y-36371485D02*
X51633333Y-36371485D01*
X47874819Y-32083333D02*
X48589104Y-32083333D01*
X48589104Y-32083333D02*
X48731961Y-32130952D01*
X48731961Y-32130952D02*
X48827200Y-32226190D01*
X48827200Y-32226190D02*
X48874819Y-32369047D01*
X48874819Y-32369047D02*
X48874819Y-32464285D01*
X48208152Y-31178571D02*
X48874819Y-31178571D01*
X47827200Y-31416666D02*
X48541485Y-31654761D01*
X48541485Y-31654761D02*
X48541485Y-31035714D01*
X59906666Y-41684819D02*
X59906666Y-42399104D01*
X59906666Y-42399104D02*
X59859047Y-42541961D01*
X59859047Y-42541961D02*
X59763809Y-42637200D01*
X59763809Y-42637200D02*
X59620952Y-42684819D01*
X59620952Y-42684819D02*
X59525714Y-42684819D01*
X60335238Y-41780057D02*
X60382857Y-41732438D01*
X60382857Y-41732438D02*
X60478095Y-41684819D01*
X60478095Y-41684819D02*
X60716190Y-41684819D01*
X60716190Y-41684819D02*
X60811428Y-41732438D01*
X60811428Y-41732438D02*
X60859047Y-41780057D01*
X60859047Y-41780057D02*
X60906666Y-41875295D01*
X60906666Y-41875295D02*
X60906666Y-41970533D01*
X60906666Y-41970533D02*
X60859047Y-42113390D01*
X60859047Y-42113390D02*
X60287619Y-42684819D01*
X60287619Y-42684819D02*
X60906666Y-42684819D01*
X50061905Y-46754819D02*
X50061905Y-45754819D01*
X50061905Y-45754819D02*
X50300000Y-45754819D01*
X50300000Y-45754819D02*
X50442857Y-45802438D01*
X50442857Y-45802438D02*
X50538095Y-45897676D01*
X50538095Y-45897676D02*
X50585714Y-45992914D01*
X50585714Y-45992914D02*
X50633333Y-46183390D01*
X50633333Y-46183390D02*
X50633333Y-46326247D01*
X50633333Y-46326247D02*
X50585714Y-46516723D01*
X50585714Y-46516723D02*
X50538095Y-46611961D01*
X50538095Y-46611961D02*
X50442857Y-46707200D01*
X50442857Y-46707200D02*
X50300000Y-46754819D01*
X50300000Y-46754819D02*
X50061905Y-46754819D01*
X50966667Y-45754819D02*
X51585714Y-45754819D01*
X51585714Y-45754819D02*
X51252381Y-46135771D01*
X51252381Y-46135771D02*
X51395238Y-46135771D01*
X51395238Y-46135771D02*
X51490476Y-46183390D01*
X51490476Y-46183390D02*
X51538095Y-46231009D01*
X51538095Y-46231009D02*
X51585714Y-46326247D01*
X51585714Y-46326247D02*
X51585714Y-46564342D01*
X51585714Y-46564342D02*
X51538095Y-46659580D01*
X51538095Y-46659580D02*
X51490476Y-46707200D01*
X51490476Y-46707200D02*
X51395238Y-46754819D01*
X51395238Y-46754819D02*
X51109524Y-46754819D01*
X51109524Y-46754819D02*
X51014286Y-46707200D01*
X51014286Y-46707200D02*
X50966667Y-46659580D01*
X44666666Y-41684819D02*
X44666666Y-42399104D01*
X44666666Y-42399104D02*
X44619047Y-42541961D01*
X44619047Y-42541961D02*
X44523809Y-42637200D01*
X44523809Y-42637200D02*
X44380952Y-42684819D01*
X44380952Y-42684819D02*
X44285714Y-42684819D01*
X45666666Y-42684819D02*
X45095238Y-42684819D01*
X45380952Y-42684819D02*
X45380952Y-41684819D01*
X45380952Y-41684819D02*
X45285714Y-41827676D01*
X45285714Y-41827676D02*
X45190476Y-41922914D01*
X45190476Y-41922914D02*
X45095238Y-41970533D01*
X43254819Y-37354166D02*
X42778628Y-37687499D01*
X43254819Y-37925594D02*
X42254819Y-37925594D01*
X42254819Y-37925594D02*
X42254819Y-37544642D01*
X42254819Y-37544642D02*
X42302438Y-37449404D01*
X42302438Y-37449404D02*
X42350057Y-37401785D01*
X42350057Y-37401785D02*
X42445295Y-37354166D01*
X42445295Y-37354166D02*
X42588152Y-37354166D01*
X42588152Y-37354166D02*
X42683390Y-37401785D01*
X42683390Y-37401785D02*
X42731009Y-37449404D01*
X42731009Y-37449404D02*
X42778628Y-37544642D01*
X42778628Y-37544642D02*
X42778628Y-37925594D01*
X43254819Y-36401785D02*
X43254819Y-36973213D01*
X43254819Y-36687499D02*
X42254819Y-36687499D01*
X42254819Y-36687499D02*
X42397676Y-36782737D01*
X42397676Y-36782737D02*
X42492914Y-36877975D01*
X42492914Y-36877975D02*
X42540533Y-36973213D01*
X56983333Y-36904819D02*
X56650000Y-36428628D01*
X56411905Y-36904819D02*
X56411905Y-35904819D01*
X56411905Y-35904819D02*
X56792857Y-35904819D01*
X56792857Y-35904819D02*
X56888095Y-35952438D01*
X56888095Y-35952438D02*
X56935714Y-36000057D01*
X56935714Y-36000057D02*
X56983333Y-36095295D01*
X56983333Y-36095295D02*
X56983333Y-36238152D01*
X56983333Y-36238152D02*
X56935714Y-36333390D01*
X56935714Y-36333390D02*
X56888095Y-36381009D01*
X56888095Y-36381009D02*
X56792857Y-36428628D01*
X56792857Y-36428628D02*
X56411905Y-36428628D01*
X57840476Y-36238152D02*
X57840476Y-36904819D01*
X57602381Y-35857200D02*
X57364286Y-36571485D01*
X57364286Y-36571485D02*
X57983333Y-36571485D01*
X51881905Y-55104819D02*
X51881905Y-54104819D01*
X51881905Y-54104819D02*
X52120000Y-54104819D01*
X52120000Y-54104819D02*
X52262857Y-54152438D01*
X52262857Y-54152438D02*
X52358095Y-54247676D01*
X52358095Y-54247676D02*
X52405714Y-54342914D01*
X52405714Y-54342914D02*
X52453333Y-54533390D01*
X52453333Y-54533390D02*
X52453333Y-54676247D01*
X52453333Y-54676247D02*
X52405714Y-54866723D01*
X52405714Y-54866723D02*
X52358095Y-54961961D01*
X52358095Y-54961961D02*
X52262857Y-55057200D01*
X52262857Y-55057200D02*
X52120000Y-55104819D01*
X52120000Y-55104819D02*
X51881905Y-55104819D01*
X52834286Y-54200057D02*
X52881905Y-54152438D01*
X52881905Y-54152438D02*
X52977143Y-54104819D01*
X52977143Y-54104819D02*
X53215238Y-54104819D01*
X53215238Y-54104819D02*
X53310476Y-54152438D01*
X53310476Y-54152438D02*
X53358095Y-54200057D01*
X53358095Y-54200057D02*
X53405714Y-54295295D01*
X53405714Y-54295295D02*
X53405714Y-54390533D01*
X53405714Y-54390533D02*
X53358095Y-54533390D01*
X53358095Y-54533390D02*
X52786667Y-55104819D01*
X52786667Y-55104819D02*
X53405714Y-55104819D01*
X51286666Y-84904819D02*
X51286666Y-85619104D01*
X51286666Y-85619104D02*
X51239047Y-85761961D01*
X51239047Y-85761961D02*
X51143809Y-85857200D01*
X51143809Y-85857200D02*
X51000952Y-85904819D01*
X51000952Y-85904819D02*
X50905714Y-85904819D01*
X52191428Y-84904819D02*
X52000952Y-84904819D01*
X52000952Y-84904819D02*
X51905714Y-84952438D01*
X51905714Y-84952438D02*
X51858095Y-85000057D01*
X51858095Y-85000057D02*
X51762857Y-85142914D01*
X51762857Y-85142914D02*
X51715238Y-85333390D01*
X51715238Y-85333390D02*
X51715238Y-85714342D01*
X51715238Y-85714342D02*
X51762857Y-85809580D01*
X51762857Y-85809580D02*
X51810476Y-85857200D01*
X51810476Y-85857200D02*
X51905714Y-85904819D01*
X51905714Y-85904819D02*
X52096190Y-85904819D01*
X52096190Y-85904819D02*
X52191428Y-85857200D01*
X52191428Y-85857200D02*
X52239047Y-85809580D01*
X52239047Y-85809580D02*
X52286666Y-85714342D01*
X52286666Y-85714342D02*
X52286666Y-85476247D01*
X52286666Y-85476247D02*
X52239047Y-85381009D01*
X52239047Y-85381009D02*
X52191428Y-85333390D01*
X52191428Y-85333390D02*
X52096190Y-85285771D01*
X52096190Y-85285771D02*
X51905714Y-85285771D01*
X51905714Y-85285771D02*
X51810476Y-85333390D01*
X51810476Y-85333390D02*
X51762857Y-85381009D01*
X51762857Y-85381009D02*
X51715238Y-85476247D01*
X59254819Y-50966666D02*
X58778628Y-51299999D01*
X59254819Y-51538094D02*
X58254819Y-51538094D01*
X58254819Y-51538094D02*
X58254819Y-51157142D01*
X58254819Y-51157142D02*
X58302438Y-51061904D01*
X58302438Y-51061904D02*
X58350057Y-51014285D01*
X58350057Y-51014285D02*
X58445295Y-50966666D01*
X58445295Y-50966666D02*
X58588152Y-50966666D01*
X58588152Y-50966666D02*
X58683390Y-51014285D01*
X58683390Y-51014285D02*
X58731009Y-51061904D01*
X58731009Y-51061904D02*
X58778628Y-51157142D01*
X58778628Y-51157142D02*
X58778628Y-51538094D01*
X58254819Y-50633332D02*
X58254819Y-50014285D01*
X58254819Y-50014285D02*
X58635771Y-50347618D01*
X58635771Y-50347618D02*
X58635771Y-50204761D01*
X58635771Y-50204761D02*
X58683390Y-50109523D01*
X58683390Y-50109523D02*
X58731009Y-50061904D01*
X58731009Y-50061904D02*
X58826247Y-50014285D01*
X58826247Y-50014285D02*
X59064342Y-50014285D01*
X59064342Y-50014285D02*
X59159580Y-50061904D01*
X59159580Y-50061904D02*
X59207200Y-50109523D01*
X59207200Y-50109523D02*
X59254819Y-50204761D01*
X59254819Y-50204761D02*
X59254819Y-50490475D01*
X59254819Y-50490475D02*
X59207200Y-50585713D01*
X59207200Y-50585713D02*
X59159580Y-50633332D01*
%TO.C,D4*%
D11*
X49190000Y-37250000D02*
X49190000Y-38950000D01*
X49190000Y-37250000D02*
X51850000Y-37250000D01*
X49190000Y-38950000D02*
X51850000Y-38950000D01*
%TO.C,J4*%
X49420000Y-33130000D02*
X49420000Y-31750000D01*
X50800000Y-33130000D02*
X49420000Y-33130000D01*
X52070000Y-30370000D02*
X54720000Y-30370000D01*
X52070000Y-33130000D02*
X52070000Y-30370000D01*
X52070000Y-33130000D02*
X54720000Y-33130000D01*
X54720000Y-33130000D02*
X54720000Y-30370000D01*
%TO.C,J2*%
X58910000Y-46270000D02*
X58910000Y-61570000D01*
X58910000Y-46270000D02*
X61570000Y-46270000D01*
X58910000Y-61570000D02*
X61570000Y-61570000D01*
X60240000Y-43670000D02*
X61570000Y-43670000D01*
X61570000Y-43670000D02*
X61570000Y-45000000D01*
X61570000Y-46270000D02*
X61570000Y-61570000D01*
%TO.C,D3*%
X52410000Y-43600000D02*
X49750000Y-43600000D01*
X52410000Y-45300000D02*
X49750000Y-45300000D01*
X52410000Y-45300000D02*
X52410000Y-43600000D01*
%TO.C,J1*%
X43670000Y-46270000D02*
X43670000Y-61570000D01*
X43670000Y-46270000D02*
X46330000Y-46270000D01*
X43670000Y-61570000D02*
X46330000Y-61570000D01*
X45000000Y-43670000D02*
X46330000Y-43670000D01*
X46330000Y-43670000D02*
X46330000Y-45000000D01*
X46330000Y-46270000D02*
X46330000Y-61570000D01*
%TO.C,R1*%
X43715000Y-37414564D02*
X43715000Y-36960436D01*
X45185000Y-37414564D02*
X45185000Y-36960436D01*
%TO.C,R4*%
X56922936Y-37365000D02*
X57377064Y-37365000D01*
X56922936Y-38835000D02*
X57377064Y-38835000D01*
%TO.C,D2*%
X49110000Y-55500000D02*
X49110000Y-58800000D01*
X49110000Y-55500000D02*
X54620000Y-55500000D01*
X49110000Y-58800000D02*
X54620000Y-58800000D01*
%TO.C,J6*%
X48560000Y-81750000D02*
X49170000Y-81750000D01*
X48560000Y-83050000D02*
X49170000Y-83050000D01*
X49170000Y-80250000D02*
X49170000Y-83750000D01*
X49170000Y-83750000D02*
X51120000Y-83750000D01*
X51120000Y-83750000D02*
X51120000Y-84360000D01*
X51520000Y-80750000D02*
X51520000Y-80250000D01*
X51620000Y-80250000D02*
X51620000Y-80750000D01*
X51720000Y-80250000D02*
X51720000Y-80750000D01*
X51720000Y-80750000D02*
X51520000Y-80750000D01*
X52120000Y-83750000D02*
X54070000Y-83750000D01*
X52120000Y-84360000D02*
X52120000Y-83750000D01*
X52920000Y-84360000D02*
X52920000Y-84560000D01*
X52920000Y-84460000D02*
X53220000Y-84460000D01*
X52920000Y-84560000D02*
X53220000Y-84560000D01*
X53220000Y-84560000D02*
X53220000Y-84360000D01*
X53730000Y-84660000D02*
X54980000Y-84660000D01*
X54070000Y-80250000D02*
X49170000Y-80250000D01*
X54070000Y-83750000D02*
X54070000Y-80250000D01*
X54680000Y-81750000D02*
X54070000Y-81750000D01*
X54680000Y-83050000D02*
X54070000Y-83050000D01*
X54980000Y-84660000D02*
X54980000Y-83410000D01*
X48560000Y-79640000D02*
X54680000Y-79640000D01*
X54680000Y-84360000D01*
X48560000Y-84360000D01*
X48560000Y-79640000D01*
%TO.C,R3*%
X56415000Y-50572936D02*
X56415000Y-51027064D01*
X57885000Y-50572936D02*
X57885000Y-51027064D01*
%TD*%
M02*
